<?xml version="1.0" encoding="UTF-8"?>
<svg version="1.1" xmlns="http://www.w3.org/2000/svg" width="270" height="148">
<path d="M0 0 C89.1 0 178.2 0 270 0 C270 48.84 270 97.68 270 148 C180.9 148 91.8 148 0 148 C0 99.16 0 50.32 0 0 Z " fill="#FDFDFD" transform="translate(0,0)"/>
<path d="M0 0 C1.12607666 0.01027222 1.12607666 0.01027222 2.27490234 0.02075195 C11.70458529 0.29223409 18.41023126 3.69333316 25.75 9.4375 C25.09 10.7575 24.43 12.0775 23.75 13.4375 C19.23612327 13.01432406 16.21511753 11.02449891 12.51953125 8.59375 C6.97669159 4.97193866 0.11140255 5.78928515 -6.25 6.4375 C-12.72376065 8.64312456 -17.76290626 12.8650443 -21.2421875 18.75 C-23.596626 25.02850268 -23.63629394 31.86532685 -21.20703125 38.125 C-17.33943004 44.53850116 -11.3340791 49.0761403 -4.25 51.4375 C3.16956852 52.10800916 9.65865036 52.07723625 15.75 47.4375 C19.96233299 43.54777457 21.59721403 41.20142983 22.75 35.4375 C17.14 35.4375 11.53 35.4375 5.75 35.4375 C5.75 33.4575 5.75 31.4775 5.75 29.4375 C13.67 29.4375 21.59 29.4375 29.75 29.4375 C28.79100633 39.02743669 27.91002185 45.04830742 20.52734375 51.328125 C12.05819698 57.15331443 4.99690997 58.32220589 -5.25 57.4375 C-13.38600071 55.57879669 -20.079566 51.03541797 -24.8203125 44.16015625 C-28.82346225 37.28617626 -30.37153735 30.3762252 -29.25 22.4375 C-26.38697313 13.8484194 -22.00377064 8.07683943 -14.25 3.4375 C-13.33734375 2.8909375 -12.4246875 2.344375 -11.484375 1.78125 C-7.59662165 0.16604813 -4.1434438 -0.05786933 0 0 Z " fill="#FEC110" transform="translate(225.25,44.5625)"/>
<path d="M0 0 C2.625 2.375 2.625 2.375 5 5 C5.5775 5.5775 6.155 6.155 6.75 6.75 C8 9 8 9 9 18 C-2.88 18 -14.76 18 -27 18 C-24.71531941 27.2467482 -24.71531941 27.2467482 -19 33 C-13.51302475 34.82899175 -8.87320504 34.68976898 -3.6875 32.25 C-0.70162765 30.6074769 1.27614672 29.01674325 3 26 C4.65 26.33 6.3 26.66 8 27 C5.362381 32.27523801 3.30862739 35.06331251 -2 38 C-7.73443413 39.91147804 -14.74189608 40.20171718 -20.45703125 38.09375 C-22.49884893 36.87568668 -24.22046208 35.57339759 -26 34 C-26.969375 33.175 -27.93875 32.35 -28.9375 31.5 C-32.50281883 26.86267652 -32.10507125 20.58979061 -32 15 C-31.15215201 8.53515909 -27.82744491 4.21537623 -23 0 C-16.07513229 -3.19609279 -6.8999658 -3.35736591 0 0 Z " fill="#101010" transform="translate(82,62)"/>
<path d="M0 0 C2 0 2 0 3.3046875 1.2578125 C3.82289063 1.87398437 4.34109375 2.49015625 4.875 3.125 C5.80505859 4.21748047 5.80505859 4.21748047 6.75390625 5.33203125 C7.86572266 6.65267578 7.86572266 6.65267578 9 8 C10.93330001 10.27442914 12.8723501 12.54391285 14.8125 14.8125 C15.32611084 15.41400879 15.83972168 16.01551758 16.36889648 16.63525391 C20.44476837 21.3926692 24.63530143 26.02948014 28.86328125 30.65234375 C36 38.49360146 36 38.49360146 36 41 C36.66 41 37.32 41 38 41 C38 27.47 38 13.94 38 0 C39.65 0 41.3 0 43 0 C43 17.82 43 35.64 43 54 C38.63294544 51.81647272 36.33794553 49.17544927 33.3125 45.5 C32.24319371 44.22571747 31.17287358 42.95228504 30.1015625 41.6796875 C29.57594727 41.05288086 29.05033203 40.42607422 28.50878906 39.78027344 C26.44986999 37.3508822 24.32622849 34.98421596 22.1875 32.625 C16.96584791 26.86415557 11.85825759 21.07282199 7 15 C6.67 28.2 6.34 41.4 6 55 C4.02 55 2.04 55 0 55 C0 36.85 0 18.7 0 0 Z " fill="#C61818" transform="translate(146,46)"/>
<path d="M0 0 C9.57 0 19.14 0 29 0 C29 1.65 29 3.3 29 5 C25.04 5 21.08 5 17 5 C17 21.17 17 37.34 17 54 C15.35 54 13.7 54 12 54 C12 37.83 12 21.66 12 5 C8.04 5 4.08 5 0 5 C0 3.35 0 1.7 0 0 Z " fill="#050505" transform="translate(19,46)"/>
<path d="M0 0 C3.6875 1.5 3.6875 1.5 6 3 C5.67 4.32 5.34 5.64 5 7 C2 7 2 7 0.1875 6 C-2.68527813 4.68673 -4.87653647 4.72839448 -8 5 C-8.66 5.66 -9.32 6.32 -10 7 C-9.9162616 10.85196655 -9.5021736 12.4978264 -6.75 15.25 C-4.20530687 16.86935017 -1.84650852 18.02405422 1 19 C1 19.66 1 20.32 1 21 C1.61875 21.2475 2.2375 21.495 2.875 21.75 C5.46275992 23.27221172 6.05592658 24.16777975 7 27 C7.51555338 30.9525759 7.15914688 32.7044415 5.25 36.25 C2.59403033 39.49618515 0.78389647 40.74683978 -3.3671875 41.3359375 C-9.27721655 41.42799403 -12.44712045 40.83400383 -17 37 C-16.34 35.68 -15.68 34.36 -15 33 C-13 34 -11 35 -9 36 C-5.73834906 36.28362182 -3.60417691 36.28618906 -0.625 34.875 C1.20478164 33.02856949 1.20478164 33.02856949 1.8125 30.1875 C0.50912324 25.07425272 -3.65963531 23.60971295 -8 21 C-14.561976 16.86310209 -14.561976 16.86310209 -15.5703125 12.57421875 C-15.74954937 8.54138925 -15.25338491 5.6032974 -13.6875 1.875 C-9.39282557 -1.12128449 -5.06501973 -0.70164776 0 0 Z " fill="#131313" transform="translate(111,60)"/>
<path d="M0 0 C1.65 0 3.3 0 5 0 C5 4.95 5 9.9 5 15 C7.64 15 10.28 15 13 15 C13 16.65 13 18.3 13 20 C10.36 20 7.72 20 5 20 C5 31.55 5 43.1 5 55 C3.35 55 1.7 55 0 55 C0 43.12 0 31.24 0 19 C-2.31 19 -4.62 19 -7 19 C-7 17.68 -7 16.36 -7 15 C-4.69 15 -2.38 15 0 15 C0 10.05 0 5.1 0 0 Z " fill="#0B0B0B" transform="translate(128,45)"/>
<path d="M0 0 C4.3102992 2.19214788 6.67107289 5.11618037 8.9453125 9.30078125 C8.9453125 9.96078125 8.9453125 10.62078125 8.9453125 11.30078125 C-0.9546875 11.30078125 -10.8546875 11.30078125 -21.0546875 11.30078125 C-18.68894004 3.02066514 -18.68894004 3.02066514 -14.1796875 0.18359375 C-9.53298883 -1.74683621 -4.73260436 -1.61052506 0 0 Z " fill="#F8F8F8" transform="translate(77.0546875,64.69921875)"/>
<path d="M0 0 C0.90878906 -0.01417969 1.81757812 -0.02835938 2.75390625 -0.04296875 C8.57546673 0.45699059 11.59053923 2.93559599 15.4375 7.1875 C16.015 7.785625 16.5925 8.38375 17.1875 9 C19.07353061 12.30055357 19.12311445 15.41487338 19.4375 19.1875 C17.4575 19.1875 15.4775 19.1875 13.4375 19.1875 C13.4375 18.8575 13.4375 18.5275 13.4375 18.1875 C3.8675 17.8575 -5.7025 17.5275 -15.5625 17.1875 C-15.5625 16.8575 -15.5625 16.5275 -15.5625 16.1875 C-5.6625 16.1875 4.2375 16.1875 14.4375 16.1875 C10.19735341 8.36915443 10.19735341 8.36915443 3.4375 5.1875 C-1.65346488 4.53140502 -5.39531908 4.62475206 -10.0625 6.875 C-12.70740076 8.98672601 -12.70740076 8.98672601 -13.625 11.875 C-13.934375 12.638125 -14.24375 13.40125 -14.5625 14.1875 C-17.1875 15 -17.1875 15 -19.5625 15.1875 C-20.31640625 13.51171875 -20.31640625 13.51171875 -20.5625 11.1875 C-18.90234375 8.64453125 -18.90234375 8.64453125 -16.5 6 C-15.72527344 5.11957031 -14.95054688 4.23914063 -14.15234375 3.33203125 C-9.89807991 -0.19073021 -5.34133258 0.03798956 0 0 Z " fill="#0A0A0A" transform="translate(71.5625,59.8125)"/>
<path d="M0 0 C0.33 0 0.66 0 1 0 C1 1.98 1 3.96 1 6 C10.9 6 20.8 6 31 6 C31 6.33 31 6.66 31 7 C33.475 7.495 33.475 7.495 36 8 C36 8.33 36 8.66 36 9 C24.12 9 12.24 9 0 9 C-0.33 9.99 -0.66 10.98 -1 12 C-1 11.34 -1 10.68 -1 10 C-1.66 10 -2.32 10 -3 10 C-3 11.98 -3 13.96 -3 16 C-3.33 16 -3.66 16 -4 16 C-4.22245393 14.39773045 -4.42746669 12.79303233 -4.625 11.1875 C-4.74101563 10.29417969 -4.85703125 9.40085937 -4.9765625 8.48046875 C-5 6 -5 6 -3 3 C-2.01 3 -1.02 3 0 3 C0 2.01 0 1.02 0 0 Z " fill="#060606" transform="translate(55,71)"/>
<path d="M0 0 C4.96714779 1.71280958 8.16771439 5.62242382 10.8125 10 C11.98150189 12.95326793 12.27649998 14.86633355 12 18 C10.02 18 8.04 18 6 18 C6 17.67 6 17.34 6 17 C-3.57 16.67 -13.14 16.34 -23 16 C-23 15.67 -23 15.34 -23 15 C-13.1 15 -3.2 15 7 15 C2.86196144 7.7120551 2.86196144 7.7120551 0 5 C-0.69748583 3.68252676 -1.36959957 2.35085807 -2 1 C-1.34 0.67 -0.68 0.34 0 0 Z " fill="#1C1C1C" transform="translate(79,61)"/>
<path d="M0 0 C0.66 0 1.32 0 2 0 C2.31453125 0.67546875 2.6290625 1.3509375 2.953125 2.046875 C5.87951591 8.14646088 8.29896397 12.19930931 14 16 C13.34 17.32 12.68 18.64 12 20 C6.67113628 17.01160496 2.17090604 14.31893917 -1 9 C-1.101962 5.89015915 -0.67990908 3.02929786 0 0 Z " fill="#141414" transform="translate(52,81)"/>
<path d="M0 0 C0.33 0.99 0.66 1.98 1 3 C0.34 3.433125 -0.32 3.86625 -1 4.3125 C-1.66 4.869375 -2.32 5.42625 -3 6 C-3 6.99 -3 7.98 -3 9 C-6.70070696 10.85035348 -10.96155254 10.4754747 -15 10 C-17.41534564 8.91546245 -18.9518276 7.72477676 -21 6 C-20.34 4.68 -19.68 3.36 -19 2 C-17 3 -15 4 -13 5 C-8.94857881 5.25860135 -7.45662331 5.30441554 -4 3 C-3.01 3 -2.02 3 -1 3 C-0.67 2.01 -0.34 1.02 0 0 Z " fill="#0D0D0D" transform="translate(115,91)"/>
<path d="M0 0 C1.44246094 -0.02126953 1.44246094 -0.02126953 2.9140625 -0.04296875 C5.375 0.1875 5.375 0.1875 7.375 2.1875 C6.715 2.1875 6.055 2.1875 5.375 2.1875 C5.375 2.8475 5.375 3.5075 5.375 4.1875 C6.695 4.8475 8.015 5.5075 9.375 6.1875 C8.52679688 6.02378906 7.67859375 5.86007813 6.8046875 5.69140625 C3.3104469 5.17801555 0.02872426 5.08899261 -3.5 5.125 C-4.65242188 5.13402344 -5.80484375 5.14304687 -6.9921875 5.15234375 C-7.86101563 5.16394531 -8.72984375 5.17554687 -9.625 5.1875 C-9.625 3.8675 -9.625 2.5475 -9.625 1.1875 C-6.37294841 0.22421457 -3.38614248 0.02281767 0 0 Z " fill="#060606" transform="translate(71.625,59.8125)"/>
<path d="M0 0 C3.63 0 7.26 0 11 0 C10.01 0.66 9.02 1.32 8 2 C9.98 2 11.96 2 14 2 C12 4 12 4 9.1796875 4.1953125 C8.08914062 4.17210938 6.99859375 4.14890625 5.875 4.125 C4.77929688 4.10695313 3.68359375 4.08890625 2.5546875 4.0703125 C1.71164063 4.04710938 0.86859375 4.02390625 0 4 C0 2.68 0 1.36 0 0 Z " fill="#030303" transform="translate(65,97)"/>
<path d="M0 0 C4.75 0.875 4.75 0.875 7 2 C6.67 3.32 6.34 4.64 6 6 C2.30581799 6 0.22163822 4.71820705 -3 3 C-2.67 2.34 -2.34 1.68 -2 1 C-1.34 1 -0.68 1 0 1 C0 0.67 0 0.34 0 0 Z " fill="#1A1A1A" transform="translate(110,61)"/>
<path d="M0 0 C1.23556641 0.01740234 1.23556641 0.01740234 2.49609375 0.03515625 C3.32238281 0.04417969 4.14867188 0.05320313 5 0.0625 C5.63808594 0.07410156 6.27617188 0.08570313 6.93359375 0.09765625 C7.59359375 1.41765625 8.25359375 2.73765625 8.93359375 4.09765625 C8.12921875 3.91203125 7.32484375 3.72640625 6.49609375 3.53515625 C5.22765625 3.31859375 5.22765625 3.31859375 3.93359375 3.09765625 C3.60359375 3.42765625 3.27359375 3.75765625 2.93359375 4.09765625 C1.2674226 4.13829457 -0.4002872 4.14037725 -2.06640625 4.09765625 C-2.39640625 3.10765625 -2.72640625 2.11765625 -3.06640625 1.09765625 C-2.06640625 0.09765625 -2.06640625 0.09765625 0 0 Z " fill="#060606" transform="translate(104.06640625,59.90234375)"/>
<path d="M0 0 C0.33 0.99 0.66 1.98 1 3 C0.34 3.433125 -0.32 3.86625 -1 4.3125 C-1.66 4.869375 -2.32 5.42625 -3 6 C-3 6.99 -3 7.98 -3 9 C-5.40545638 10.20272819 -6.94996953 10.10071472 -9.625 10.0625 C-10.85089844 10.04896484 -10.85089844 10.04896484 -12.1015625 10.03515625 C-13.04128906 10.01775391 -13.04128906 10.01775391 -14 10 C-13.67 9.34 -13.34 8.68 -13 8 C-10.69 8.33 -8.38 8.66 -6 9 C-5.34 7.02 -4.68 5.04 -4 3 C-3.01 3 -2.02 3 -1 3 C-0.67 2.01 -0.34 1.02 0 0 Z " fill="#060606" transform="translate(115,91)"/>
<path d="M0 0 C-0.33 1.98 -0.66 3.96 -1 6 C-2.65 6.33 -4.3 6.66 -6 7 C-6.33 5.68 -6.66 4.36 -7 3 C-2.25 0 -2.25 0 0 0 Z " fill="#1C1C1C" transform="translate(58,68)"/>
<path d="M0 0 C0.66 0.33 1.32 0.66 2 1 C2.625 3.0625 2.625 3.0625 3 5 C2.01 5.66 1.02 6.32 0 7 C-0.99 6.34 -1.98 5.68 -3 5 C-1.125 1.125 -1.125 1.125 0 0 Z " fill="#242424" transform="translate(100,60)"/>
<path d="M0 0 C0.99 0.33 1.98 0.66 3 1 C2.67 2.65 2.34 4.3 2 6 C1.01 6.33 0.02 6.66 -1 7 C-0.7525 6.1028125 -0.7525 6.1028125 -0.5 5.1875 C0.1114124 2.88655664 0.1114124 2.88655664 0 0 Z " fill="#232323" transform="translate(60,61)"/>
<path d="M0 0 C0.66 0.33 1.32 0.66 2 1 C-0.31 3.31 -2.62 5.62 -5 8 C-5.33 7.34 -5.66 6.68 -6 6 C-4 4 -2 2 0 0 Z " fill="#DBDBDB" transform="translate(63,65)"/>
</svg>
